# xmcd
#
# Track frame offsets: 
#        150
#        22133
#        40060
#        66698
#        82283
#        102768
#        122778
#        141710
#        166513
#        191485
#
# Disc length: 2818 seconds
#
# Revision: 4
# Processed by: cddbd v1.5.2PL0 Copyright (c) Steve Scherf et al.
# Submitted via: ExactAudioCopy v1.3
#
DISCID=930b000a
DTITLE=The Rolling Stones - Goats Head Soup
DYEAR=1973
DGENRE=Rock
TTITLE0=Dancing with Mr. D.
TTITLE1=100 years ago
TTITLE2=Coming down again
TTITLE3=Doo Doo Doo Doo Doo (Heartbreaker)
TTITLE4=Angie
TTITLE5=Silver Train
TTITLE6=Hide your love
TTITLE7=Winter
TTITLE8=Can you hear the Music
TTITLE9=Star Star
EXTD=YEAR: 1973
EXTT0=
EXTT1=
EXTT2=
EXTT3=
EXTT4=
EXTT5=
EXTT6=
EXTT7=
EXTT8=
EXTT9=
PLAYORDER=
